<svg xmlns="http://www.w3.org/2000/svg" viewBox="0 0 1280 860" width="1280" height="860">
  <style>
    text { font-family: 'Helvetica Neue', Helvetica, Arial, 'PingFang SC', 'Microsoft YaHei', 'Microsoft JhengHei', 'SimHei', sans-serif; }
    .title { fill:#111827; font-size:24px; font-weight:700; }
    .subtitle { fill:#6b7280; font-size:13px; }
    .layer { fill:#374151; font-size:12px; font-weight:700; letter-spacing:0.06em; }
    .node-title { fill:#111827; font-size:14px; font-weight:700; }
    .node-sub { fill:#6b7280; font-size:11px; }
    .small { fill:#6b7280; font-size:10px; }
  </style>
  <defs>
    <marker id="arrow-blue" markerWidth="10" markerHeight="7" refX="9" refY="3.5" orient="auto"><polygon points="0 0,10 3.5,0 7" fill="#2563eb"/></marker>
    <marker id="arrow-green" markerWidth="10" markerHeight="7" refX="9" refY="3.5" orient="auto"><polygon points="0 0,10 3.5,0 7" fill="#16a34a"/></marker>
    <marker id="arrow-purple" markerWidth="10" markerHeight="7" refX="9" refY="3.5" orient="auto"><polygon points="0 0,10 3.5,0 7" fill="#7c3aed"/></marker>
    <marker id="arrow-orange" markerWidth="10" markerHeight="7" refX="9" refY="3.5" orient="auto"><polygon points="0 0,10 3.5,0 7" fill="#ea580c"/></marker>
    <marker id="arrow-gray" markerWidth="10" markerHeight="7" refX="9" refY="3.5" orient="auto"><polygon points="0 0,10 3.5,0 7" fill="#6b7280"/></marker>
    <filter id="shadow" x="-16%" y="-16%" width="132%" height="132%"><feDropShadow dx="0" dy="2" stdDeviation="3" flood-color="#000000" flood-opacity="0.10"/></filter>
  </defs>
  <rect width="1280" height="860" fill="#ffffff"/>
  <text x="640" y="40" text-anchor="middle" class="title">OpenFlow 项目架构图</text>
  <text x="640" y="63" text-anchor="middle" class="subtitle">CLI 初始化 · 技能生成 · 7 阶段模板 · OpenSpec/Superpowers 编排</text>
  <rect x="40" y="90" width="1200" height="110" rx="14" fill="#eff6ff" stroke="#93c5fd" stroke-width="1.2" stroke-dasharray="7,5"/>
  <text x="58" y="116" class="layer">用户 / AI 工具入口</text>
  <rect x="40" y="225" width="1200" height="155" rx="14" fill="#f0fdf4" stroke="#86efac" stroke-width="1.2" stroke-dasharray="7,5"/>
  <text x="58" y="251" class="layer">CLI 命令层</text>
  <rect x="40" y="405" width="1200" height="150" rx="14" fill="#fff7ed" stroke="#fdba74" stroke-width="1.2" stroke-dasharray="7,5"/>
  <text x="58" y="431" class="layer">核心编排层</text>
  <rect x="40" y="590" width="1200" height="170" rx="14" fill="#faf5ff" stroke="#c4b5fd" stroke-width="1.2" stroke-dasharray="7,5"/>
  <text x="58" y="616" class="layer">模板、产物与外部工具</text>
  <g filter="url(#shadow)">
    <rect x="70" y="122" width="180" height="58" rx="10" fill="#ffffff" stroke="#bfdbfe" stroke-width="1.5"/>
    <text x="88" y="150" class="node-title">开发者 / Agent</text>
    <text x="88" y="170" class="node-sub">调用 openflow CLI</text>
    <text x="88" y="185" class="node-sub">使用 /openflow skills</text>
  </g>
  <g filter="url(#shadow)">
    <rect x="310" y="122" width="190" height="58" rx="10" fill="#ffffff" stroke="#bfdbfe" stroke-width="1.5"/>
    <text x="328" y="150" class="node-title">bin/openflow.js</text>
    <text x="328" y="170" class="node-sub">npm bin 入口</text>
    <text x="328" y="185" class="node-sub">Commander router</text>
  </g>
  <g filter="url(#shadow)">
    <rect x="560" y="122" width="220" height="58" rx="10" fill="#ffffff" stroke="#bfdbfe" stroke-width="1.5"/>
    <text x="578" y="150" class="node-title">AI Tool Skills</text>
    <text x="578" y="170" class="node-sub">Claude/Codex/Cursor aliases</text>
    <text x="578" y="185" class="node-sub">OpenCode command tree</text>
  </g>
  <g filter="url(#shadow)">
    <rect x="840" y="116" width="360" height="70" rx="10" fill="#ffffff" stroke="#bfdbfe" stroke-width="1.5"/>
    <text x="858" y="144" class="node-title">OpenFlow Phases</text>
    <text x="858" y="164" class="node-sub">proposal → brainstorming → grill → spec</text>
    <text x="858" y="179" class="node-sub">translation → build → amend → close</text>
  </g>
  <g filter="url(#shadow)">
    <rect x="65" y="260" width="205" height="80" rx="10" fill="#f0fdf4" stroke="#86efac" stroke-width="1.5"/>
    <text x="83" y="288" class="node-title">initCommand</text>
    <text x="83" y="308" class="node-sub">检测 OpenSpec/Superpowers</text>
    <text x="83" y="323" class="node-sub">初始化项目</text>
    <text x="83" y="338" class="node-sub">生成本地/全局 skills</text>
  </g>
  <g filter="url(#shadow)">
    <rect x="305" y="260" width="185" height="80" rx="10" fill="#f0fdf4" stroke="#86efac" stroke-width="1.5"/>
    <text x="323" y="288" class="node-title">updateCommand</text>
    <text x="323" y="308" class="node-sub">读取 .openflow state</text>
    <text x="323" y="323" class="node-sub">重新生成 skills</text>
  </g>
  <g filter="url(#shadow)">
    <rect x="525" y="260" width="210" height="80" rx="10" fill="#f0fdf4" stroke="#86efac" stroke-width="1.5"/>
    <text x="543" y="288" class="node-title">statusCommand</text>
    <text x="543" y="308" class="node-sub">依赖状态</text>
    <text x="543" y="323" class="node-sub">active change dashboard</text>
    <text x="543" y="338" class="node-sub">ready for grill/spec</text>
  </g>
  <g filter="url(#shadow)">
    <rect x="770" y="260" width="220" height="80" rx="10" fill="#f0fdf4" stroke="#86efac" stroke-width="1.5"/>
    <text x="788" y="288" class="node-title">阶段别名 Skills</text>
    <text x="788" y="308" class="node-sub">openflow-proposal / grill</text>
    <text x="788" y="323" class="node-sub">openflow-spec / build</text>
    <text x="788" y="338" class="node-sub">Claude/Codex/Cursor</text>
  </g>
  <g filter="url(#shadow)">
    <rect x="1025" y="260" width="175" height="80" rx="10" fill="#f0fdf4" stroke="#86efac" stroke-width="1.5"/>
    <text x="1043" y="288" class="node-title">OpenCode 命令树</text>
    <text x="1043" y="308" class="node-sub">/openflow/proposal</text>
    <text x="1043" y="323" class="node-sub">/openflow/grill</text>
    <text x="1043" y="338" class="node-sub">/openflow/spec ...</text>
  </g>
  <g filter="url(#shadow)">
    <rect x="65" y="438" width="230" height="82" rx="10" fill="#fff7ed" stroke="#fdba74" stroke-width="1.5"/>
    <text x="83" y="466" class="node-title">dependency-check.ts</text>
    <text x="83" y="486" class="node-sub">OpenSpec CLI</text>
    <text x="83" y="501" class="node-sub">Superpowers skills</text>
    <text x="83" y="516" class="node-sub">project .openflow state</text>
  </g>
  <g filter="url(#shadow)">
    <rect x="335" y="438" width="260" height="82" rx="10" fill="#fff7ed" stroke="#fdba74" stroke-width="1.5"/>
    <text x="353" y="466" class="node-title">skill-generator.ts</text>
    <text x="353" y="486" class="node-sub">PHASES includes grill</text>
    <text x="353" y="501" class="node-sub">reads templates/*.md</text>
    <text x="353" y="516" class="node-sub">generates aliases / commands</text>
  </g>
  <g filter="url(#shadow)">
    <rect x="635" y="438" width="250" height="82" rx="10" fill="#fff7ed" stroke="#fdba74" stroke-width="1.5"/>
    <text x="653" y="466" class="node-title">Translation Contract</text>
    <text x="653" y="486" class="node-sub">Source Coverage</text>
    <text x="653" y="501" class="node-sub">File Responsibility Map</text>
    <text x="653" y="516" class="node-sub">Implementation Slices + TDD</text>
  </g>
  <g filter="url(#shadow)">
    <rect x="925" y="438" width="250" height="82" rx="10" fill="#fff7ed" stroke="#fdba74" stroke-width="1.5"/>
    <text x="943" y="466" class="node-title">Workflow Guards</text>
    <text x="943" y="486" class="node-sub">phase write boundaries</text>
    <text x="943" y="501" class="node-sub">grill is optional</text>
    <text x="943" y="516" class="node-sub">tasks checkbox evidence</text>
  </g>
  <path d="M 65,625 L 270,625 L 288,643 L 288,720 L 65,720 Z" fill="#faf5ff" stroke="#c4b5fd" stroke-width="1.5" filter="url(#shadow)"/>
  <path d="M 270,625 L 270,643 L 288,643" fill="#ffffff" stroke="#c4b5fd" stroke-width="1"/>
  <text x="82" y="657" class="node-title">templates/*.md</text>
  <text x="82" y="677" class="node-sub">SKILL + 7 phases</text>
  <text x="82" y="694" class="node-sub">includes grill.md</text>
  <text x="82" y="711" class="node-sub">detailed spec/amend handoff</text>
  <path d="M 335,625 L 565,625 L 583,643 L 583,720 L 335,720 Z" fill="#faf5ff" stroke="#c4b5fd" stroke-width="1.5" filter="url(#shadow)"/>
  <path d="M 565,625 L 565,643 L 583,643" fill="#ffffff" stroke="#c4b5fd" stroke-width="1"/>
  <text x="352" y="657" class="node-title">Generated outputs</text>
  <text x="352" y="677" class="node-sub">.claude/skills/openflow/</text>
  <text x="352" y="694" class="node-sub">.codex/skills/openflow/</text>
  <text x="352" y="711" class="node-sub">.opencode/commands/openflow/</text>
  <g filter="url(#shadow)">
    <ellipse cx="700" cy="632" rx="92" ry="13" fill="#eff6ff" stroke="#93c5fd" stroke-width="1.5"/>
    <rect x="608" y="632" width="184" height="76" fill="#eff6ff" stroke="none"/>
    <line x1="608" y1="632" x2="608" y2="708" stroke="#93c5fd" stroke-width="1.5"/>
    <line x1="792" y1="632" x2="792" y2="708" stroke="#93c5fd" stroke-width="1.5"/>
    <ellipse cx="700" cy="708" rx="92" ry="13" fill="#dbeafe" stroke="#93c5fd" stroke-width="1.5"/>
    <text x="700" y="662" text-anchor="middle" class="node-title">OpenSpec changes</text>
    <text x="700" y="682" text-anchor="middle" class="node-sub">proposal/design/specs/tasks</text>
    <text x="700" y="698" text-anchor="middle" class="node-sub">plan-ready.md</text>
  </g>
  <g filter="url(#shadow)">
    <rect x="840" y="625" width="190" height="82" rx="10" fill="#faf5ff" stroke="#c4b5fd" stroke-width="1.5"/>
    <text x="858" y="653" class="node-title">External tools</text>
    <text x="858" y="673" class="node-sub">OpenSpec CLI</text>
    <text x="858" y="688" class="node-sub">Superpowers writing-plans</text>
    <text x="858" y="703" class="node-sub">manual fallback</text>
  </g>
  <g filter="url(#shadow)">
    <rect x="1070" y="625" width="130" height="82" rx="10" fill="#faf5ff" stroke="#c4b5fd" stroke-width="1.5"/>
    <text x="1088" y="653" class="node-title">dist/</text>
    <text x="1088" y="673" class="node-sub">tsc output</text>
    <text x="1088" y="688" class="node-sub">npm publish files</text>
  </g>
  <path d="M 250,151 H 310" fill="none" stroke="#2563eb" stroke-width="2" marker-end="url(#arrow-blue)"/>
  <path d="M 500,151 H 560" fill="none" stroke="#2563eb" stroke-width="2" marker-end="url(#arrow-blue)"/>
  <path d="M 780,151 H 840" fill="none" stroke="#7c3aed" stroke-width="2" stroke-dasharray="5,4" marker-end="url(#arrow-purple)"/>
  <path d="M 160,180 V 260" fill="none" stroke="#2563eb" stroke-width="2" marker-end="url(#arrow-blue)"/>
  <path d="M 405,180 V 260" fill="none" stroke="#2563eb" stroke-width="2" marker-end="url(#arrow-blue)"/>
  <path d="M 660,180 V 260" fill="none" stroke="#2563eb" stroke-width="2" marker-end="url(#arrow-blue)"/>
  <path d="M 860,186 V 260" fill="none" stroke="#7c3aed" stroke-width="2" stroke-dasharray="5,4" marker-end="url(#arrow-purple)"/>
  <path d="M 1040,186 V 260" fill="none" stroke="#7c3aed" stroke-width="2" stroke-dasharray="5,4" marker-end="url(#arrow-purple)"/>
  <path d="M 168,340 V 438" fill="none" stroke="#ea580c" stroke-width="2" marker-end="url(#arrow-orange)"/>
  <path d="M 168,340 C 250,390 360,405 465,438" fill="none" stroke="#16a34a" stroke-width="2" marker-end="url(#arrow-green)"/>
  <path d="M 398,340 C 415,380 445,402 465,438" fill="none" stroke="#16a34a" stroke-width="2" marker-end="url(#arrow-green)"/>
  <path d="M 635,340 C 670,380 720,405 760,438" fill="none" stroke="#2563eb" stroke-width="2" marker-end="url(#arrow-blue)"/>
  <path d="M 880,340 C 900,380 965,405 1040,438" fill="none" stroke="#7c3aed" stroke-width="2" stroke-dasharray="5,4" marker-end="url(#arrow-purple)"/>
  <path d="M 465,520 C 380,575 270,600 178,625" fill="none" stroke="#16a34a" stroke-width="2" marker-end="url(#arrow-green)"/>
  <path d="M 465,520 V 625" fill="none" stroke="#16a34a" stroke-width="2" marker-end="url(#arrow-green)"/>
  <path d="M 760,520 C 735,560 710,590 700,625" fill="none" stroke="#2563eb" stroke-width="2" marker-end="url(#arrow-blue)"/>
  <path d="M 1040,520 C 1000,565 955,598 935,625" fill="none" stroke="#ea580c" stroke-width="2" marker-end="url(#arrow-orange)"/>
  <path d="M 465,520 C 690,560 980,585 1135,625" fill="none" stroke="#6b7280" stroke-width="2" stroke-dasharray="5,4" marker-end="url(#arrow-gray)"/>
  <path d="M 935,520 V 625" fill="none" stroke="#ea580c" stroke-width="2" marker-end="url(#arrow-orange)"/>
  <g transform="translate(70,800)">
    <line x1="0" y1="0" x2="34" y2="0" stroke="#2563eb" stroke-width="2" marker-end="url(#arrow-blue)"/>
    <text x="44" y="4" class="small">请求/状态流</text>
    <line x1="220" y1="0" x2="34" y2="0" stroke="#16a34a" stroke-width="2" marker-end="url(#arrow-green)"/>
    <text x="264" y="4" class="small">文件生成</text>
    <line x1="440" y1="0" x2="34" y2="0" stroke="#7c3aed" stroke-width="2" stroke-dasharray="5,4" marker-end="url(#arrow-purple)"/>
    <text x="484" y="4" class="small">技能/命令可见性</text>
    <line x1="660" y1="0" x2="34" y2="0" stroke="#ea580c" stroke-width="2" marker-end="url(#arrow-orange)"/>
    <text x="704" y="4" class="small">依赖/工具调用</text>
    <line x1="880" y1="0" x2="34" y2="0" stroke="#6b7280" stroke-width="2" stroke-dasharray="5,4" marker-end="url(#arrow-gray)"/>
    <text x="924" y="4" class="small">构建输出</text>
  </g>
  <text x="1200" y="838" text-anchor="end" class="small">@lininn/openflow · architecture overview</text>
</svg>