<svg xmlns="http://www.w3.org/2000/svg" viewBox="0 0 1200 720" width="1200" height="720">
  <style>
    text { font-family: "Helvetica Neue", Helvetica, Arial, "PingFang SC", "Microsoft YaHei", sans-serif; }
  </style>
  <defs>
    <marker id="arrow-blue" markerWidth="10" markerHeight="7" refX="9" refY="3.5" orient="auto">
      <polygon points="0 0, 10 3.5, 0 7" fill="#2563eb"/>
    </marker>
    <marker id="arrow-green" markerWidth="10" markerHeight="7" refX="9" refY="3.5" orient="auto">
      <polygon points="0 0, 10 3.5, 0 7" fill="#16a34a"/>
    </marker>
    <marker id="arrow-purple" markerWidth="10" markerHeight="7" refX="9" refY="3.5" orient="auto">
      <polygon points="0 0, 10 3.5, 0 7" fill="#9333ea"/>
    </marker>
    <linearGradient id="headerGrad" x1="0" y1="0" x2="1" y2="0">
      <stop offset="0%" stop-color="#2563eb"/>
      <stop offset="100%" stop-color="#7c3aed"/>
    </linearGradient>
  </defs>
  <!-- Background -->
  <rect width="1200" height="720" fill="#ffffff"/>
  <!-- Title -->
  <text x="600" y="40" text-anchor="middle" fill="#111827" font-size="22" font-weight="600">Graphify Pipeline</text>
  <text x="600" y="62" text-anchor="middle" fill="#6b7280" font-size="13">AST + LLM Dual-Track Knowledge Graph Builder</text>
  <!-- Input Zone -->
  <rect x="40" y="90" width="140" height="200" rx="12" fill="#f0fdf4" stroke="#86efac" stroke-width="1.5" stroke-dasharray="6,3"/>
  <text x="110" y="115" text-anchor="middle" fill="#16a34a" font-size="13" font-weight="600">INPUT</text>
  <rect x="55" y="132" width="110" height="30" rx="6" fill="#dbeafe" stroke="#2563eb" stroke-width="1"/>
  <text x="110" y="151" text-anchor="middle" fill="#2563eb" font-size="12" font-weight="500">Code</text>
  <rect x="55" y="172" width="110" height="30" rx="6" fill="#fef3c7" stroke="#d97706" stroke-width="1"/>
  <text x="110" y="191" text-anchor="middle" fill="#d97706" font-size="12" font-weight="500">Docs/MD</text>
  <rect x="55" y="212" width="110" height="30" rx="6" fill="#fee2e2" stroke="#dc2626" stroke-width="1"/>
  <text x="110" y="231" text-anchor="middle" fill="#dc2626" font-size="12" font-weight="500">PDF</text>
  <rect x="55" y="252" width="110" height="30" rx="6" fill="#ede9fe" stroke="#7c3aed" stroke-width="1"/>
  <text x="110" y="271" text-anchor="middle" fill="#7c3aed" font-size="12" font-weight="500">Images</text>
  <rect x="240" y="200" width="120" height="80" rx="8" fill="#eff6ff" stroke="#2563eb" stroke-width="1.5"/>
  <circle cx="258" cy="218" r="11" fill="#2563eb"/>
  <text x="258" y="222" text-anchor="middle" fill="#ffffff" font-size="11" font-weight="600">1</text>
  <text x="300" y="242" text-anchor="middle" fill="#2563eb" font-size="13" font-weight="600">Detect</text>
  <text x="300" y="258" text-anchor="middle" fill="#6b7280" font-size="10">File type</text>
  <text x="300" y="271" text-anchor="middle" fill="#6b7280" font-size="10">identification</text>
  <line x1="360" y1="240" x2="370" y2="240" stroke="#2563eb" stroke-width="1.5" marker-end="url(#arrow-blue)"/>
  <rect x="370" y="200" width="120" height="80" rx="8" fill="#fef3c7" stroke="#d97706" stroke-width="1.5"/>
  <circle cx="388" cy="218" r="11" fill="#d97706"/>
  <text x="388" y="222" text-anchor="middle" fill="#ffffff" font-size="11" font-weight="600">2</text>
  <text x="430" y="242" text-anchor="middle" fill="#d97706" font-size="13" font-weight="600">Extract</text>
  <text x="430" y="258" text-anchor="middle" fill="#6b7280" font-size="10">AST + LLM</text>
  <text x="430" y="271" text-anchor="middle" fill="#6b7280" font-size="10">dual track</text>
  <line x1="490" y1="240" x2="500" y2="240" stroke="#2563eb" stroke-width="1.5" marker-end="url(#arrow-blue)"/>
  <rect x="500" y="200" width="120" height="80" rx="8" fill="#f0fdf4" stroke="#16a34a" stroke-width="1.5"/>
  <circle cx="518" cy="218" r="11" fill="#16a34a"/>
  <text x="518" y="222" text-anchor="middle" fill="#ffffff" font-size="11" font-weight="600">3</text>
  <text x="560" y="242" text-anchor="middle" fill="#16a34a" font-size="13" font-weight="600">Build</text>
  <text x="560" y="258" text-anchor="middle" fill="#6b7280" font-size="10">NetworkX</text>
  <text x="560" y="271" text-anchor="middle" fill="#6b7280" font-size="10">graph</text>
  <line x1="620" y1="240" x2="630" y2="240" stroke="#2563eb" stroke-width="1.5" marker-end="url(#arrow-blue)"/>
  <rect x="630" y="200" width="120" height="80" rx="8" fill="#ede9fe" stroke="#7c3aed" stroke-width="1.5"/>
  <circle cx="648" cy="218" r="11" fill="#7c3aed"/>
  <text x="648" y="222" text-anchor="middle" fill="#ffffff" font-size="11" font-weight="600">4</text>
  <text x="690" y="242" text-anchor="middle" fill="#7c3aed" font-size="13" font-weight="600">Cluster</text>
  <text x="690" y="258" text-anchor="middle" fill="#6b7280" font-size="10">Leiden</text>
  <text x="690" y="271" text-anchor="middle" fill="#6b7280" font-size="10">community</text>
  <line x1="750" y1="240" x2="760" y2="240" stroke="#2563eb" stroke-width="1.5" marker-end="url(#arrow-blue)"/>
  <rect x="760" y="200" width="120" height="80" rx="8" fill="#fff7ed" stroke="#ea580c" stroke-width="1.5"/>
  <circle cx="778" cy="218" r="11" fill="#ea580c"/>
  <text x="778" y="222" text-anchor="middle" fill="#ffffff" font-size="11" font-weight="600">5</text>
  <text x="820" y="242" text-anchor="middle" fill="#ea580c" font-size="13" font-weight="600">Analyze</text>
  <text x="820" y="258" text-anchor="middle" fill="#6b7280" font-size="10">Centrality</text>
  <text x="820" y="271" text-anchor="middle" fill="#6b7280" font-size="10">bridges</text>
  <line x1="880" y1="240" x2="890" y2="240" stroke="#2563eb" stroke-width="1.5" marker-end="url(#arrow-blue)"/>
  <rect x="890" y="200" width="120" height="80" rx="8" fill="#eff6ff" stroke="#2563eb" stroke-width="1.5"/>
  <circle cx="908" cy="218" r="11" fill="#2563eb"/>
  <text x="908" y="222" text-anchor="middle" fill="#ffffff" font-size="11" font-weight="600">6</text>
  <text x="950" y="242" text-anchor="middle" fill="#2563eb" font-size="13" font-weight="600">Report</text>
  <text x="950" y="258" text-anchor="middle" fill="#6b7280" font-size="10">Markdown</text>
  <text x="950" y="271" text-anchor="middle" fill="#6b7280" font-size="10">+ wiki</text>
  <line x1="1010" y1="240" x2="1020" y2="240" stroke="#2563eb" stroke-width="1.5" marker-end="url(#arrow-blue)"/>
  <rect x="1020" y="200" width="120" height="80" rx="8" fill="#f0fdf4" stroke="#16a34a" stroke-width="1.5"/>
  <circle cx="1038" cy="218" r="11" fill="#16a34a"/>
  <text x="1038" y="222" text-anchor="middle" fill="#ffffff" font-size="11" font-weight="600">7</text>
  <text x="1080" y="242" text-anchor="middle" fill="#16a34a" font-size="13" font-weight="600">Export</text>
  <text x="1080" y="258" text-anchor="middle" fill="#6b7280" font-size="10">HTML</text>
  <text x="1080" y="271" text-anchor="middle" fill="#6b7280" font-size="10">visualization</text>
  <line x1="180" y1="240" x2="235" y2="240" stroke="#16a34a" stroke-width="1.5" marker-end="url(#arrow-green)"/>
  <!-- Dual Track: AST -->
  <rect x="360" y="145" width="140" height="40" rx="6" fill="#dbeafe" stroke="#2563eb" stroke-width="1"/>
  <text x="430" y="164" text-anchor="middle" fill="#2563eb" font-size="11" font-weight="600">Tree-sitter AST</text>
  <text x="430" y="178" text-anchor="middle" fill="#6b7280" font-size="9">Zero Token | Confidence 1.0</text>
  <line x1="430" y1="185" x2="430" y2="198" stroke="#2563eb" stroke-width="1" marker-end="url(#arrow-blue)"/>
  <!-- Dual Track: LLM -->
  <rect x="360" y="295" width="140" height="40" rx="6" fill="#fef3c7" stroke="#d97706" stroke-width="1"/>
  <text x="430" y="314" text-anchor="middle" fill="#d97706" font-size="11" font-weight="600">LLM Semantic</text>
  <text x="430" y="328" text-anchor="middle" fill="#6b7280" font-size="9">INFERRED edges | 0.8 conf</text>
  <line x1="430" y1="282" x2="430" y2="295" stroke="#d97706" stroke-width="1"/>
  <text x="352" y="244" fill="#6b7280" font-size="10" font-style="italic">OR</text>
  <!-- Output Zone -->
  <rect x="240" y="370" width="920" height="130" rx="12" fill="#faf5ff" stroke="#c4b5fd" stroke-width="1.5" stroke-dasharray="6,3"/>
  <text x="700" y="392" text-anchor="middle" fill="#7c3aed" font-size="13" font-weight="600">OUTPUT ARTIFACTS (graphify-out/)</text>
  <rect x="270" y="405" width="200" height="80" rx="8" fill="#dbeafe" stroke="#2563eb" stroke-width="1.5"/>
  <text x="370" y="427" text-anchor="middle" fill="#2563eb" font-size="12" font-weight="600">graph.json</text>
  <text x="370" y="445" text-anchor="middle" fill="#6b7280" font-size="10">Knowledge graph</text>
  <text x="370" y="459" text-anchor="middle" fill="#6b7280" font-size="10">core data</text>
  <rect x="495" y="405" width="200" height="80" rx="8" fill="#f0fdf4" stroke="#16a34a" stroke-width="1.5"/>
  <text x="595" y="427" text-anchor="middle" fill="#16a34a" font-size="12" font-weight="600">GRAPH_REPORT.md</text>
  <text x="595" y="445" text-anchor="middle" fill="#6b7280" font-size="10">Human-readable</text>
  <text x="595" y="459" text-anchor="middle" fill="#6b7280" font-size="10">graph report</text>
  <rect x="720" y="405" width="200" height="80" rx="8" fill="#fef3c7" stroke="#d97706" stroke-width="1.5"/>
  <text x="820" y="427" text-anchor="middle" fill="#d97706" font-size="12" font-weight="600">wiki/index.md</text>
  <text x="820" y="445" text-anchor="middle" fill="#6b7280" font-size="10">Obsidian-compatible</text>
  <text x="820" y="459" text-anchor="middle" fill="#6b7280" font-size="10">wiki index</text>
  <rect x="945" y="405" width="200" height="80" rx="8" fill="#ede9fe" stroke="#7c3aed" stroke-width="1.5"/>
  <text x="1045" y="427" text-anchor="middle" fill="#7c3aed" font-size="12" font-weight="600">graph.html</text>
  <text x="1045" y="445" text-anchor="middle" fill="#6b7280" font-size="10">Interactive</text>
  <text x="1045" y="459" text-anchor="middle" fill="#6b7280" font-size="10">visualization</text>
  <line x1="1080" y1="280" x2="1080" y2="367" stroke="#7c3aed" stroke-width="1.5" marker-end="url(#arrow-purple)"/>
  <!-- Command Reference -->
  <rect x="40" y="540" width="1120" height="80" rx="10" fill="#f9fafb" stroke="#e5e7eb" stroke-width="1"/>
  <text x="60" y="564" fill="#111827" font-size="13" font-weight="600">Quick Commands</text>
  <text x="70" y="588" fill="#2563eb" font-size="12" font-weight="600" font-family="monospace">/graphify .</text>
  <text x="70" y="605" fill="#6b7280" font-size="10">Build graph</text>
  <text x="345" y="588" fill="#16a34a" font-size="12" font-weight="600" font-family="monospace">/graphify update .</text>
  <text x="345" y="605" fill="#6b7280" font-size="10">Incremental update (zero token)</text>
  <text x="620" y="588" fill="#9333ea" font-size="12" font-weight="600" font-family="monospace">/graphify query "..."</text>
  <text x="620" y="605" fill="#6b7280" font-size="10">Semantic BFS query</text>
  <text x="895" y="588" fill="#ea580c" font-size="12" font-weight="600" font-family="monospace">/graphify path A B</text>
  <text x="895" y="605" fill="#6b7280" font-size="10">Shortest path between nodes</text>
  <!-- Key Stats -->
  <rect x="980" y="80" width="180" height="90" rx="10" fill="#eff6ff" stroke="#bfdbfe" stroke-width="1.5"/>
  <text x="1070" y="103" text-anchor="middle" fill="#2563eb" font-size="11" font-weight="600">KEY METRICS</text>
  <text x="1070" y="125" text-anchor="middle" fill="#111827" font-size="20" font-weight="700">71.5x</text>
  <text x="1070" y="142" text-anchor="middle" fill="#6b7280" font-size="10">Token reduction</text>
  <text x="1070" y="162" text-anchor="middle" fill="#16a34a" font-size="12" font-weight="600">Zero LLM cost (code-only)</text>
  <text x="600" y="640" text-anchor="middle" fill="#9ca3af" font-size="10">Graphify v0.8.27 | MIT License | github.com/safishamsi/graphify | graphify.net</text>
</svg>